<svg xmlns="http://www.w3.org/2000/svg" xmlns:svgjs="http://svgjs.com/svgjs" xmlns:xlink="http://www.w3.org/1999/xlink" width="288" height="288"><svg xmlns="http://www.w3.org/2000/svg" width="288" height="288" fill="none" viewBox="0 0 177 114"><path fill="#992621" fill-rule="evenodd" d="M89.4898 7.14669C114.712 5.7344 142.682 14.3972 150.494 38.4669C158.309 62.5476 140.238 85.2364 119.555 99.7882C100.117 113.464 74.2872 119.77 55.3502 105.407C37.2364 91.6685 38.9225 65.7933 46.3915 44.2961C53.2796 24.4708 68.571 8.31804 89.4898 7.14669Z" class="colorF7D3C1 svgShape" clip-rule="evenodd"/><path stroke="#1B1B1B" stroke-linecap="round" stroke-linejoin="round" stroke-width="2.377" d="M161.716 27.5816C154.38 27.5816 148.432 21.6764 148.432 14.3919C148.432 7.10739 154.38 1.20215 161.716 1.20215C169.053 1.20215 175 7.10739 175 14.3919C175 21.6764 169.053 27.5816 161.716 27.5816Z" class="colorStroke1B1B1B svgStroke"/><path fill="#1b1b1b" d="M3.93065 75.1395C1.76088 75.1395 0.00196886 73.3931 0.00196886 71.2387C0.00196886 69.0843 1.76088 67.3379 3.93065 67.3379C6.10041 67.3379 7.85938 69.0843 7.85938 71.2387C7.85938 73.3931 6.10041 75.1395 3.93065 75.1395Z" class="color1B1B1B svgShape"/></svg></svg>