<svg xmlns="http://www.w3.org/2000/svg" xmlns:svgjs="http://svgjs.com/svgjs" xmlns:xlink="http://www.w3.org/1999/xlink" width="288" height="288"><svg xmlns="http://www.w3.org/2000/svg" width="288" height="288" fill="none" viewBox="0 0 44 50"><path fill="#992621" fill-rule="evenodd" d="M19.6292 5.0379C24.6262 5.34648 27.8795 8.81442 31.5263 11.7143C36.5154 15.6816 44.1323 18.6319 43.9983 24.4162C43.8465 30.961 37.7204 36.3551 30.8834 39.4457C23.6503 42.7154 14.3535 44.7632 7.54941 40.8927C1.217 37.2905 2.59845 29.5252 2.13453 23.092C1.79949 18.4461 1.83725 13.6995 5.32858 10.0965C8.77122 6.54384 14.2058 4.703 19.6292 5.0379Z" class="color3C8AAC svgShape" clip-rule="evenodd"/><path fill="#992621" fill-rule="evenodd" d="M42.0355 3.04305C42.859 4.58537 43.1353 6.59169 41.8645 7.77828C40.5931 8.9654 38.6535 8.4874 37.1443 7.61008C35.7259 6.78559 34.58 5.34665 34.922 3.74249C35.2491 2.20807 36.9094 1.56541 38.4656 1.41239C39.9009 1.27127 41.3525 1.76386 42.0355 3.04305Z" class="color3C8AAC svgShape" clip-rule="evenodd" opacity=".7"/><path stroke="#1B1B1B" stroke-linecap="round" stroke-linejoin="round" d="M6.00001 14.0001C3.23858 14.0001 1 11.7615 1 9.00005C1 6.2386 3.23858 4 6.00001 4C8.76143 4 11 6.2386 11 9.00005C11 11.7615 8.76143 14.0001 6.00001 14.0001Z" class="colorStroke1B1B1B svgStroke"/><path fill="#1b1b1b" d="M34 49.9991C32.8954 49.9991 32 49.1036 32 47.999C32 46.8945 32.8954 45.999 34 45.999C35.1046 45.999 36 46.8945 36 47.999C36 49.1036 35.1046 49.9991 34 49.9991Z" class="color1B1B1B svgShape"/></svg></svg>